{"asset":{"version":"2.0","generator":"babylon.js glTF exporter for 3dsmax 2021 v20210624.1"},"scene":0,"scenes":[{"nodes":[0]}],"nodes":[{"mesh":0,"name":"Room"}],"meshes":[{"primitives":[{"attributes":{"POSITION":1,"NORMAL":2,"TEXCOORD_0":3},"indices":0,"material":0}],"name":"Room"}],"accessors":[{"bufferView":0,"componentType":5123,"count":60402,"type":"SCALAR","name":"accessorIndices"},{"bufferView":1,"componentType":5126,"count":60402,"max":[0.09832177,0.142765135,0.09007254],"min":[-0.09709912,0.00133300782,-0.09891439],"type":"VEC3","name":"accessorPositions"},{"bufferView":1,"byteOffset":724824,"componentType":5126,"count":60402,"type":"VEC3","name":"accessorNormals"},{"bufferView":2,"componentType":5126,"count":60402,"type":"VEC2","name":"accessorUVs"}],"bufferViews":[{"buffer":0,"byteLength":120804,"name":"bufferViewScalar"},{"buffer":0,"byteOffset":120804,"byteLength":1449648,"byteStride":12,"name":"bufferViewFloatVec3"},{"buffer":0,"byteOffset":1570452,"byteLength":483216,"byteStride":8,"name":"bufferViewFloatVec2"}],"buffers":[{"uri":"Room.bin","byteLength":2053668}],"materials":[{"pbrMetallicRoughness":{"baseColorTexture":{"index":0},"metallicFactor":0.0,"roughnessFactor":0.450053632},"name":"Colors"}],"textures":[{"sampler":0,"source":0,"name":"RoomColorsTex.png"}],"images":[{"uri":"./RoomColorsTex.png"}],"samplers":[{"magFilter":9729,"minFilter":9987}]}